<svg width="50" height="50" viewBox="0 0 50 50" fill="none" xmlns="http://www.w3.org/2000/svg">
<path fill-rule="evenodd" clip-rule="evenodd" d="M25 50C11.1929 50 0 38.8071 0 25C0 11.1929 11.1929 0 25 0C38.8071 0 50 11.1929 50 25C50 38.8071 38.8071 50 25 50ZM25.8241 38.9089C34.0203 38.9055 40.6865 32.2378 40.6897 24.0432C40.6914 20.0711 39.1465 16.3362 36.3398 13.5265C33.5331 10.7166 29.8006 9.16839 25.8239 9.16667C17.63 9.16667 10.9612 15.8351 10.9579 24.0315C10.9569 26.6516 11.6414 29.2089 12.9423 31.4633L10.8333 39.1667L18.7139 37.0995C20.8852 38.2837 23.3299 38.908 25.8179 38.9089H25.8241Z" fill="#F2F2F2"/>
<path fill-rule="evenodd" clip-rule="evenodd" d="M19.0791 34.408L14.4026 35.6347L15.6508 31.0752L15.3571 30.6077C14.1202 28.6405 13.467 26.3668 13.4679 24.0321C13.4706 17.2196 19.0134 11.6772 25.829 11.6772C29.1292 11.6784 32.2315 12.9653 34.5643 15.3008C36.8971 17.6363 38.181 20.7406 38.1798 24.0421C38.177 30.8552 32.6343 36.3981 25.8241 36.3981H25.8191C23.6019 36.3971 21.4273 35.8015 19.5302 34.6758L19.0791 34.408ZM33.3133 27.578C33.2205 27.4231 32.9729 27.3302 32.6015 27.1441C32.23 26.9582 30.4039 26.0597 30.0633 25.9357C29.7229 25.8117 29.4751 25.7498 29.2276 26.1215C28.98 26.4934 28.2681 27.3302 28.0515 27.578C27.8348 27.8259 27.618 27.8569 27.2468 27.671C26.8753 27.4851 25.6784 27.0929 24.2597 25.8273C23.1554 24.8423 22.4099 23.6261 22.1932 23.2542C21.9766 22.8823 22.1702 22.6813 22.3561 22.4961C22.5232 22.3296 22.7276 22.0621 22.9133 21.8454C23.0991 21.6285 23.1609 21.4735 23.2847 21.2258C23.4085 20.9778 23.3467 20.7609 23.2537 20.575C23.1609 20.389 22.418 18.5607 22.1085 17.8169C21.807 17.0927 21.5008 17.1908 21.2728 17.1793C21.0563 17.1685 20.8085 17.1662 20.5609 17.1662C20.3133 17.1662 19.9108 17.2591 19.5704 17.631C19.2299 18.0029 18.2703 18.9015 18.2703 20.7297C18.2703 22.5581 19.6013 24.3243 19.7871 24.5722C19.9728 24.8202 22.4062 28.5719 26.1324 30.1809C27.0186 30.5636 27.7104 30.7921 28.25 30.9633C29.1398 31.2461 29.9496 31.2062 30.5895 31.1105C31.3032 31.0039 32.7871 30.212 33.0968 29.3444C33.4061 28.4766 33.4061 27.7329 33.3133 27.578Z" fill="#F2F2F2"/>
</svg>
