<svg width="68" height="68" viewBox="0 0 68 68" fill="none" xmlns="http://www.w3.org/2000/svg">
<path d="M53.6449 8.52108H41.9758C40.8033 5.28274 37.7324 2.93774 34.1033 2.93774C30.4741 2.93774 27.4033 5.28274 26.2308 8.52108H14.5616C11.4908 8.52108 8.97827 11.0336 8.97827 14.1044V53.1877C8.97827 56.2586 11.4908 58.7711 14.5616 58.7711H53.6449C56.7158 58.7711 59.2283 56.2586 59.2283 53.1877V14.1044C59.2283 11.0336 56.7158 8.52108 53.6449 8.52108ZM34.1033 8.52108C35.6387 8.52108 36.8949 9.77733 36.8949 11.3127C36.8949 12.8482 35.6387 14.1044 34.1033 14.1044C32.5679 14.1044 31.3116 12.8482 31.3116 11.3127C31.3116 9.77733 32.5679 8.52108 34.1033 8.52108ZM28.5199 47.6044L17.3533 36.4377L21.2895 32.5015L28.5199 39.704L46.917 21.3069L50.8533 25.2711L28.5199 47.6044Z" fill="#30373F"/>
</svg>
