<svg width="73" height="73" viewBox="0 0 73 73" fill="none" xmlns="http://www.w3.org/2000/svg">
<path d="M36.8203 6.42749C20.2603 6.42749 6.8203 19.8675 6.8203 36.4275C6.8203 52.9875 20.2603 66.4275 36.8203 66.4275C53.3803 66.4275 66.8203 52.9875 66.8203 36.4275C66.8203 19.8675 53.3803 6.42749 36.8203 6.42749ZM47.6503 25.4475C50.8603 25.4475 53.4403 28.0275 53.4403 31.2375C53.4403 34.4475 50.8603 37.0275 47.6503 37.0275C44.4403 37.0275 41.8603 34.4475 41.8603 31.2375C41.8303 28.0275 44.4403 25.4475 47.6503 25.4475ZM29.6503 20.7075C33.5503 20.7075 36.7303 23.8875 36.7303 27.7875C36.7303 31.6875 33.5503 34.8675 29.6503 34.8675C25.7503 34.8675 22.5703 31.6875 22.5703 27.7875C22.5703 23.8575 25.7203 20.7075 29.6503 20.7075ZM29.6503 48.0975V59.3475C22.4503 57.0975 16.7503 51.5475 14.2303 44.4675C17.3803 41.1075 25.2403 39.3975 29.6503 39.3975C31.2403 39.3975 33.2503 39.6375 35.3503 40.0575C30.4303 42.6675 29.6503 46.1175 29.6503 48.0975ZM36.8203 60.4275C36.0103 60.4275 35.2303 60.3975 34.4503 60.3075V48.0975C34.4503 43.8375 43.2703 41.7075 47.6503 41.7075C50.8603 41.7075 56.4103 42.8775 59.1703 45.1575C55.6603 54.0675 46.9903 60.4275 36.8203 60.4275Z" fill="#30373F"/>
</svg>
