<svg width="81" height="80" viewBox="0 0 81 80" fill="none" xmlns="http://www.w3.org/2000/svg">
<path fill-rule="evenodd" clip-rule="evenodd" d="M30.2481 56.6666L40.2481 46.8666C38.9481 46.7333 37.9814 46.6666 36.9148 46.6666C28.0148 46.6666 10.2481 51.1333 10.2481 59.9999V66.6666H40.2481L30.2481 56.6666ZM36.9148 39.9999C44.2814 39.9999 50.2481 34.0333 50.2481 26.6666C50.2481 19.2999 44.2814 13.3333 36.9148 13.3333C29.5481 13.3333 23.5814 19.2999 23.5814 26.6666C23.5814 34.0333 29.5481 39.9999 36.9148 39.9999Z" fill="#30373F"/>
<path fill-rule="evenodd" clip-rule="evenodd" d="M51.8148 68.3334L40.2481 56.6667L44.9148 51.9667L51.8148 58.9001L68.9148 41.6667L73.5815 46.3667L51.8148 68.3334Z" fill="#30373F"/>
</svg>
