<svg width="73" height="73" viewBox="0 0 73 73" fill="none" xmlns="http://www.w3.org/2000/svg">
<path d="M60.3997 25.2021H51.2747V13.0354H8.69137C5.34553 13.0354 2.60803 15.7729 2.60803 19.1187V52.5771H8.69137C8.69137 57.6262 12.7672 61.7021 17.8164 61.7021C22.8655 61.7021 26.9414 57.6262 26.9414 52.5771H45.1914C45.1914 57.6262 49.2672 61.7021 54.3164 61.7021C59.3655 61.7021 63.4414 57.6262 63.4414 52.5771H69.5247V37.3687L60.3997 25.2021ZM17.8164 57.1396C15.2918 57.1396 13.2539 55.1017 13.2539 52.5771C13.2539 50.0525 15.2918 48.0146 17.8164 48.0146C20.3409 48.0146 22.3789 50.0525 22.3789 52.5771C22.3789 55.1017 20.3409 57.1396 17.8164 57.1396ZM58.8789 29.7646L64.8405 37.3687H51.2747V29.7646H58.8789ZM54.3164 57.1396C51.7918 57.1396 49.7539 55.1017 49.7539 52.5771C49.7539 50.0525 51.7918 48.0146 54.3164 48.0146C56.8409 48.0146 58.8789 50.0525 58.8789 52.5771C58.8789 55.1017 56.8409 57.1396 54.3164 57.1396Z" fill="#30373F"/>
</svg>
