<svg width="60" height="60" viewBox="0 0 60 60" fill="none" xmlns="http://www.w3.org/2000/svg">
<path d="M29.9998 5.90234C16.6991 5.90234 5.9166 16.6915 5.9166 29.9998C5.9166 43.3078 16.6991 54.0982 29.9998 54.0982C43.3005 54.0982 54.0838 43.3082 54.0838 29.9998C54.0834 16.6915 43.3005 5.90234 29.9998 5.90234ZM38.2246 21.3169C38.2246 21.5469 38.0385 21.7336 37.8082 21.7336H31.9453V24.8865H37.8078C38.0381 24.8865 38.2242 25.0732 38.2242 25.3032V31.1686C38.2242 31.399 38.0381 31.5853 37.8078 31.5853H32.3618V44.4569C32.3618 44.6874 32.1756 44.8736 31.9453 44.8736H26.4048C26.1745 44.8736 25.9884 44.6874 25.9884 44.4569V31.5857H22.1918C21.9615 31.5857 21.7754 31.3994 21.7754 31.169V25.3036C21.7754 25.0736 21.9615 24.8869 22.1918 24.8869H25.9884V22.5086C25.9884 22.4744 25.9925 22.4415 26 22.4098C26.0033 19.0219 26.7275 15.1461 32.2747 15.1286C32.2868 15.1278 32.2997 15.1269 32.3122 15.1269H37.8078C38.0381 15.1269 38.2242 15.3136 38.2242 15.5436V21.3169H38.2246Z" fill="#F2F2F2"/>
</svg>
