<svg width="28" height="28" viewBox="0 0 28 28" fill="none" xmlns="http://www.w3.org/2000/svg">
<path d="M22.1667 3.49984H17.29C16.8 2.1465 15.5167 1.1665 14 1.1665C12.4833 1.1665 11.2 2.1465 10.71 3.49984H5.83333C4.55 3.49984 3.5 4.54984 3.5 5.83317V22.1665C3.5 23.4498 4.55 24.4998 5.83333 24.4998H22.1667C23.45 24.4998 24.5 23.4498 24.5 22.1665V5.83317C24.5 4.54984 23.45 3.49984 22.1667 3.49984ZM14 3.49984C14.6417 3.49984 15.1667 4.02484 15.1667 4.6665C15.1667 5.30817 14.6417 5.83317 14 5.83317C13.3583 5.83317 12.8333 5.30817 12.8333 4.6665C12.8333 4.02484 13.3583 3.49984 14 3.49984ZM11.6667 19.8332L7 15.1665L8.645 13.5215L11.6667 16.5315L19.355 8.84317L21 10.4998L11.6667 19.8332Z" fill="white"/>
</svg>
