<svg width="28" height="28" viewBox="0 0 28 28" fill="none" xmlns="http://www.w3.org/2000/svg">
<path d="M23.1667 9.66667H19.6667V5H3.33333C2.05 5 1 6.05 1 7.33333V20.1667H3.33333C3.33333 22.1033 4.89667 23.6667 6.83333 23.6667C8.77 23.6667 10.3333 22.1033 10.3333 20.1667H17.3333C17.3333 22.1033 18.8967 23.6667 20.8333 23.6667C22.77 23.6667 24.3333 22.1033 24.3333 20.1667H26.6667V14.3333L23.1667 9.66667ZM6.83333 21.9167C5.865 21.9167 5.08333 21.135 5.08333 20.1667C5.08333 19.1983 5.865 18.4167 6.83333 18.4167C7.80167 18.4167 8.58333 19.1983 8.58333 20.1667C8.58333 21.135 7.80167 21.9167 6.83333 21.9167ZM22.5833 11.4167L24.87 14.3333H19.6667V11.4167H22.5833ZM20.8333 21.9167C19.865 21.9167 19.0833 21.135 19.0833 20.1667C19.0833 19.1983 19.865 18.4167 20.8333 18.4167C21.8017 18.4167 22.5833 19.1983 22.5833 20.1667C22.5833 21.135 21.8017 21.9167 20.8333 21.9167Z" fill="white"/>
</svg>
